PathFileType	4	(X/Y/Z)	OpenSim_Sub03_CSBaseline_Accel.trc
DataRate	CameraRate	NumFrames	NumMarkers	Units	OrigDataRate	OrigDataStartFrame	OrigNumFrames
100	100	23	8	m	100	4645	9288
Frame#	Time	torso_imu_offset_imu	pelvis_imu_offset_imu	tibia_r_imu_offset_imu	femur_r_imu_offset_imu	tibia_l_imu_offset_imu	femur_l_imu_offset_imu	toes_r_imu_offset_imu	toes_l_imu_offset_imu
				X1	Y1	Z1	X2	Y2	Z2	X3	Y3	Z3	X4	Y4	Z4	X5	Y5	Z5	X6	Y6	Z6	X7	Y7	Z7	X8		Y8	Z8	

4645	46.44000000	9.85787492	0.92368119	5.70242258	9.85117472	-1.82148778	1.33466847	9.91221228	2.81247007	1.50893860	10.08843063	-5.27148538	2.13941659	10.88239722	0.39940914	-0.46808877	10.11495233	0.53793256	-2.18078834	14.61119078	4.48294121	-3.85635385	6.10750883	0.29550549	10.89614798
4646	46.45000000	9.94629094	0.95682279	5.78650134	10.12848987	-1.80497491	1.43579740	9.44164990	3.32179060	1.22557033	10.48635866	-5.47894200	2.84100854	10.92438074	0.42956280	-0.44197581	10.18481725	0.79622326	-2.10948452	15.13923037	4.72892583	-4.72907930	5.66901064	0.25668509	11.17917420
4647	46.46000000	9.94928941	0.98212332	5.86484622	10.12641656	-1.78809677	1.36677032	9.25391260	2.23575789	0.94174423	10.65217972	-5.80254334	3.80572553	10.94391243	0.68855119	-0.24707948	10.10855317	1.03678357	-2.17408498	17.83262003	5.07473304	-4.94149956	5.73680337	0.31555259	11.28441364
4648	46.47000000	9.90166388	0.93133564	5.80365577	10.09742648	-1.66981251	1.27690987	8.79659126	0.82301588	0.74142678	10.97947462	-5.84084059	4.71224168	10.91028270	0.67808833	-0.43136808	10.11968871	1.18820517	-2.19582612	18.39789111	5.45580719	-6.88435890	6.25873333	0.00759831	10.84719012
4649	46.48000000	9.88873137	0.95945482	5.74900102	10.02452186	-1.72933010	1.14357962	8.63107772	0.70830162	0.84393670	11.06753876	-5.54391514	4.97104252	11.03081944	0.39764776	-0.47519124	10.17237914	1.28019927	-2.05964707	17.03866647	5.53187536	-10.18565823	6.20155247	0.03516898	10.93704406
4650	46.49000000	9.98768390	1.00544270	5.63726123	9.98929347	-1.54237826	0.96314148	8.50836820	1.19652739	0.15934996	10.58416574	-4.84758065	4.91371166	11.20558295	0.35803513	-0.46005338	10.10942683	1.43027591	-1.92426446	15.39671344	8.04479161	-13.05748346	6.05990772	0.43199283	11.19803358
4651	46.50000000	10.09599743	1.06599580	5.65992591	10.06574574	-1.38581798	0.73146744	8.54454098	0.97658854	-0.29554210	10.25703496	-3.89210720	5.14923625	11.11567979	0.47354160	-0.55102098	9.91947922	1.65465385	-1.76527555	12.74596171	7.26200559	-2.37398133	5.89866643	0.37348495	11.23274885
4652	46.51000000	10.33972262	1.05870147	5.65919005	10.20375578	-1.31342598	0.92277549	9.22832803	0.65335671	-1.70943488	11.37961229	-3.06920769	4.81121904	11.43311609	0.86022208	-0.64835657	9.93353349	1.87023044	-1.67286962	13.44376052	-10.84666821	16.72203910	6.28948434	0.40982590	11.20121638
4653	46.52000000	10.97284478	0.91830925	5.73156620	10.39038780	-1.32657295	1.59175797	11.72526532	2.81319956	-1.65775555	13.61556536	-2.32129934	3.82371459	12.22104598	1.29654431	-0.85711649	9.81848497	2.01496016	-1.77972001	6.62973298	-18.99884674	13.47046048	6.61149966	0.46119729	11.35553854
4654	46.53000000	11.95025517	0.88638911	5.94031494	10.64491439	-0.85813246	2.55072769	15.60350038	-0.23838132	2.80000476	15.13558939	-1.20817340	2.81958460	13.18168927	1.93105917	-0.91838742	9.77189629	2.44664865	-1.85439713	6.47987611	-10.54836556	5.96538181	6.23743752	0.82244683	11.86291535
4655	46.54000000	12.23086511	0.82061425	6.21627127	11.10806480	0.13655685	3.34422149	16.05613868	-13.39689573	3.47052406	12.03577596	-0.34455087	1.97593345	14.08476521	2.22205727	-0.73794721	10.15273789	2.90955229	-1.88121247	17.60110193	-8.16628849	9.37759274	5.85764618	1.13826822	12.58139855
4656	46.55000000	11.27936730	0.56819081	6.23917513	11.76564635	1.10371303	3.33523992	12.76565941	-15.45615965	-0.30483471	7.93817589	-0.91821421	0.23216183	14.61599400	1.87753681	-0.58485222	10.75284000	3.35481307	-1.98005047	13.97050357	1.00350259	10.66046726	5.95026953	1.35957066	12.78325700
4657	46.56000000	10.32969277	0.25567966	5.96492666	12.23018566	1.22146836	3.03040067	9.55188525	-5.84987423	-0.53286905	5.78425511	-3.82809283	-2.27095577	15.11478607	1.59979790	-1.17838283	10.84948563	3.23342181	-1.72885333	9.48222273	6.10887132	11.08897837	5.48906213	1.35304856	12.65868315
4658	46.57000000	10.04687861	-0.12490692	5.67493124	12.09615966	0.03052312	2.62486344	8.76048956	6.33309776	-0.33067012	6.68451847	-6.09844571	-3.32100206	15.74994960	2.61003103	-1.06471075	10.68132398	2.63551557	-1.00828525	8.69998315	2.67385608	9.20156220	4.75559204	2.64276681	12.61881794
4659	46.58000000	10.06995525	-0.30810568	5.51778131	11.36610166	-1.69709098	2.26334164	8.53270512	13.12334310	1.47965351	8.43731277	-5.78297955	-2.93816944	15.22474436	4.24745782	-0.32850859	10.55564653	2.05048048	-0.37584100	8.24874180	-1.61251482	8.51810245	4.55071045	4.58755497	12.40972099
4660	46.59000000	10.05956933	-0.36420166	5.50006534	10.49792295	-2.85776154	2.28777797	8.04123386	9.85166107	0.89467817	9.24770223	-3.44455633	-1.04440033	12.91101199	4.80520405	0.02048559	9.88328908	1.56016499	0.22429267	6.82320018	-1.68793832	8.59140311	7.59650284	4.10139023	11.31522479
4661	46.60000000	9.69080724	-0.31550954	5.52549272	9.72554744	-3.14057015	2.48166476	9.14636370	6.11016167	-1.78981549	9.87886295	0.25979955	0.45818269	11.24235289	4.21576779	0.48351915	8.33092442	0.86530836	0.74101208	7.40271705	-1.10437212	8.49876237	10.86064212	2.29103057	10.87933199
4662	46.61000000	9.11127579	-0.34117572	5.55329110	9.18344132	-2.69472220	2.86561863	9.96030310	6.19622733	-2.23964589	9.13170786	2.30084602	2.18450548	11.43723838	2.07142681	0.23558242	7.74803084	0.18926761	1.11370929	7.88445136	-1.38590849	7.96716022	12.51973041	1.21804456	10.81498966
4663	46.62000000	8.77057912	-0.50225680	5.38927447	9.17773771	-1.98347838	3.24977628	9.53137058	6.32998097	-1.75776220	8.89790991	3.18255294	0.71239353	11.81183386	-0.62015496	-0.42354994	8.53477916	-0.53872873	1.20024956	7.05302250	-1.67720130	7.85340846	16.74958460	1.33826491	11.95424380
4664	46.63000000	8.80212225	-0.69269935	5.19222711	9.29171719	-1.14802669	3.57861194	9.46881375	5.55403101	-1.63913795	8.31355848	3.22837488	-0.81458746	11.21428545	-3.22820136	-0.36706042	9.78872604	-1.61025554	1.41610409	6.83079772	-1.64288458	7.99242671	16.18403281	0.89038251	9.98685152
4665	46.64000000	9.09016461	-0.77920446	5.11640176	9.33073759	-0.26969773	3.85200686	10.07140689	4.38283425	-1.61096316	9.68343566	2.79552403	-1.62461233	10.20357332	-5.48638321	-0.78261618	11.41445556	-2.51074601	1.28917064	6.74882525	-1.38023078	8.08724956	16.63385285	0.88739263	9.81330857
4666	46.65000000	9.38859191	-0.88009502	5.04024112	9.32251574	0.62727898	4.06678532	10.39557757	3.12386443	-1.23429062	10.75035461	2.76670853	-1.20409288	9.05569772	-6.83457967	-1.27856445	12.85423779	-2.69441625	0.60868735	6.54122030	-1.51623513	8.21261370	15.53711938	1.79105778	11.13051573
4667	46.66000000	9.49786218	-0.99174676	5.14387115	9.52239052	1.72640713	4.20563043	10.64802812	2.95406810	-0.70305305	10.38732765	2.44623444	-0.22386299	8.12639017	-7.84552178	-1.25495996	13.01569714	-2.57692728	-0.23705384	6.12804570	-1.44300643	8.34721784	16.67245737	3.38333990	10.47164437
